<svg xmlns="http://www.w3.org/2000/svg" xmlns:xlink="http://www.w3.org/1999/xlink" width="128" height="128" viewBox="0 0 128 128">
    <defs>
        <circle id="b" cx="64" cy="64" r="42.667"/>
        <filter id="a" width="116.4%" height="116.4%" x="-8.2%" y="-5.9%" filterUnits="objectBoundingBox">
            <feOffset dy="2" in="SourceAlpha" result="shadowOffsetOuter1"/>
            <feGaussianBlur in="shadowOffsetOuter1" result="shadowBlurOuter1" stdDeviation="2"/>
            <feColorMatrix in="shadowBlurOuter1" values="0 0 0 0 0.109803922 0 0 0 0 0.164705882 0 0 0 0 0.270588235 0 0 0 0.3 0"/>
        </filter>
    </defs>
    <g fill="none" fill-rule="evenodd">
        <g>
            <circle cx="64" cy="64" r="64" fill="#D9EEBB"/>
            <use fill="#000" filter="url(#a)" xlink:href="#b"/>
            <use fill="#FFF" xlink:href="#b"/>
        </g>
        <g transform="translate(44 43)">
            <path fill="#74AB35" d="M39.087 6.7a3.038 3.038 0 0 0-2.163-.867h-3.077V3.646c0-1.003-.377-1.86-1.13-2.575C31.963.357 31.058 0 30 0h-1.538c-1.058 0-1.963.357-2.716 1.071-.754.714-1.13 1.573-1.13 2.575v2.188h-9.23V3.646c0-1.002-.378-1.86-1.13-2.575C13.501.357 12.595 0 11.538 0H10C8.943 0 8.037.357 7.284 1.071c-.753.714-1.13 1.573-1.13 2.575v2.188H3.077c-.833 0-1.554.288-2.163.865C.304 7.277 0 7.96 0 8.75v29.167c0 .79.305 1.473.914 2.05a3.04 3.04 0 0 0 2.163.866h33.846c.833 0 1.555-.288 2.163-.866.61-.577.914-1.26.914-2.05V8.75c0-.79-.304-1.473-.913-2.05zM10 37.916H3.077v-6.563H10v6.563zm0-8.021H3.077v-7.291H10v7.29zm0-8.75H3.077v-6.563H10v6.563zM9.46 10.72a.683.683 0 0 1-.229-.513V3.646c0-.197.076-.368.229-.512a.759.759 0 0 1 .54-.217h1.539c.208 0 .388.072.54.217a.683.683 0 0 1 .229.512v6.562a.684.684 0 0 1-.229.513.759.759 0 0 1-.54.216H10a.76.76 0 0 1-.54-.216zm9.771 27.196h-7.693v-6.563h7.693v6.563zm0-8.021h-7.693v-7.291h7.693v7.29zm0-8.75h-7.693v-6.563h7.693v6.563zm9.231 16.77H20.77v-6.562h7.692v6.563zm0-8.02H20.77v-7.291h7.692v7.29zm0-8.75H20.77v-6.563h7.692v6.563zm-.54-10.425a.683.683 0 0 1-.229-.513V3.646c0-.197.076-.368.228-.512a.76.76 0 0 1 .541-.217H30a.76.76 0 0 1 .541.217.683.683 0 0 1 .228.512v6.562a.683.683 0 0 1-.228.513.76.76 0 0 1-.54.216h-1.539a.758.758 0 0 1-.54-.216zm9.001 27.196H30v-6.563h6.923v6.563zm0-8.021H30v-7.291h6.923v7.29zm0-8.75H30v-6.563h6.923v6.563z"/>
            <circle cx="34" cy="37" r="7" fill="#FFF"/>
            <g transform="translate(27 30)">
                <path fill="#8BBE44" d="M9.783 4L5.435 7.846 4.217 6.769 3 7.846 5.435 10 11 5.077z"/>
                <circle cx="7" cy="7" r="7" stroke="#8BBE44" stroke-width="1.5"/>
            </g>
        </g>
    </g>
</svg>
