<svg xmlns="http://www.w3.org/2000/svg" width="24" height="24" viewBox="0 0 24 24">
    <g fill="none" fill-rule="evenodd">
        <circle cx="12" cy="13" r="11" fill="#E3E6F7"/>
        <path fill="#5E6B85" fill-rule="nonzero" d="M11.96 0C5.367 0 0 5.366 0 11.96c0 6.596 5.366 11.962 11.96 11.962 6.596 0 11.962-5.366 11.962-11.961C23.922 5.366 18.556 0 11.96 0zm0 21.96c-5.513 0-10-4.485-10-10 0-5.513 4.487-10 10-10 5.515 0 10 4.487 10 10 0 5.515-4.485 10-10 10z"/>
        <path fill="#5E6B85" fill-rule="nonzero" d="M16.494 8.196l-6.222 5.824-2.845-2.663a.901.901 0 0 0-1.215 0 .768.768 0 0 0 0 1.137l3.453 3.231a.887.887 0 0 0 .607.236c.22 0 .44-.079.608-.236l6.83-6.392a.768.768 0 0 0 0-1.137.901.901 0 0 0-1.216 0z"/>
    </g>
</svg>
