<svg xmlns="http://www.w3.org/2000/svg" width="24" height="21" viewBox="0 0 24 21">
    <g fill="none" fill-rule="evenodd">
        <path fill="#E3E6F7" d="M12 1.417l9.58 14.151a3 3 0 0 1-2.484 4.682H4.904a3 3 0 0 1-2.484-4.682L12 1.418z"/>
        <path fill="#5E6B85" fill-rule="nonzero" d="M23.734 18.05l-10-17.063A2.008 2.008 0 0 0 12 0c-.74 0-1.388.398-1.734.987l-10 17.063A1.94 1.94 0 0 0 0 19.03C0 20.118.896 21 2 21h20c1.104 0 2-.882 2-1.969 0-.357-.097-.693-.266-.982zm-21.735.983L11.998 1.97H12l.001.002L22 19.03l-20.001.002zM12 14.437c-.736 0-1.333.588-1.333 1.313s.596 1.313 1.333 1.313 1.333-.588 1.333-1.313-.596-1.313-1.333-1.313zm-1.333-5.906c0 .075.006.15.018.22l.657 3.828c.054.31.328.546.658.546s.604-.236.657-.546l.657-3.827c.013-.072.02-.146.02-.22 0-.725-.597-1.313-1.334-1.313-.736 0-1.333.588-1.333 1.312z"/>
    </g>
</svg>
