<svg xmlns="http://www.w3.org/2000/svg" width="24" height="24" viewBox="0 0 24 24">
    <g fill="none" fill-rule="evenodd">
        <circle cx="12" cy="12" r="11" fill="#E3E6F7"/>
        <path fill="#5E6B85" fill-rule="nonzero" d="M10.63 7.825c.044.087.088.175.132.24.043.067.11.132.153.198.066.066.132.132.22.197.065.044.153.11.262.132a1.348 1.348 0 0 0 .57.11c.088 0 .197 0 .285-.023.088-.021.175-.043.241-.087h.022c.088-.044.175-.088.263-.154.066-.043.132-.11.197-.175l.022-.022c.066-.066.11-.131.154-.197s.087-.132.11-.22c0-.021 0-.021.021-.043.044-.088.066-.197.088-.285.022-.088.022-.197.022-.285 0-.088 0-.197-.022-.285a2.036 2.036 0 0 0-.088-.285 1.244 1.244 0 0 0-.263-.394l-.044-.044c-.065-.066-.131-.11-.219-.176-.088-.043-.153-.087-.24-.131-.089-.044-.176-.066-.264-.088-.11-.022-.197-.022-.285-.022-.088 0-.197 0-.285.022a1.236 1.236 0 0 0-.263.088h-.022a2.39 2.39 0 0 0-.24.131c-.089.066-.154.11-.22.176a1.418 1.418 0 0 0-.175.197c-.044.066-.088.153-.132.241-.044.088-.066.175-.088.263-.021.11-.021.197-.021.285 0 .088 0 .197.021.285.022.175.066.263.088.35zM13.677 15.847h-.504v-5.37a.566.566 0 0 0-.57-.57H10.3a.566.566 0 0 0-.57.57v1.183c0 .307.242.57.57.57h.46v3.638h-.46a.566.566 0 0 0-.57.57v1.184c0 .307.242.57.57.57h3.376c.307 0 .57-.241.57-.57v-1.184a.585.585 0 0 0-.57-.591z"/>
        <path fill="#5E6B85" fill-rule="nonzero" d="M11.989 0C5.369 0 0 5.37 0 11.989c0 6.62 5.37 11.99 11.989 11.99 6.62 0 11.99-5.37 11.99-11.99S18.608 0 11.988 0zm0 22.4c-5.742 0-10.41-4.668-10.41-10.411 0-5.742 4.668-10.41 10.41-10.41 5.743 0 10.411 4.668 10.411 10.41 0 5.743-4.668 10.411-10.411 10.411z"/>
    </g>
</svg>
