<svg xmlns="http://www.w3.org/2000/svg" width="24" height="24" viewBox="0 0 24 24">
    <g fill="none" fill-rule="evenodd">
        <circle cx="12" cy="12" r="11" fill="#E3E6F7"/>
        <path fill="#5E6B85" fill-rule="nonzero" d="M14.4 21.77c-.198.05-.4.094-.6.13a.964.964 0 0 0 .352 1.895c.238-.045.478-.096.713-.155a.963.963 0 1 0-.465-1.87zM21.522 8.86a.96.96 0 0 0 1.217.612.963.963 0 0 0 .612-1.217c-.076-.23-.16-.46-.25-.685a.963.963 0 1 0-1.79.715c.076.189.147.382.211.576zM17.53 20.396c-.17.112-.346.22-.523.322a.963.963 0 0 0 .963 1.668c.21-.12.419-.25.621-.383a.963.963 0 0 0-1.062-1.607zM23.95 11.55a.963.963 0 0 0-1.925.077c.008.203.01.409.005.612a.962.962 0 1 0 1.926.042c.005-.242.003-.488-.006-.73zM21.365 17.862a.963.963 0 0 0-1.349.192c-.122.163-.25.324-.383.48a.964.964 0 0 0 1.467 1.248c.158-.185.311-.377.457-.572a.963.963 0 0 0-.192-1.348zM22.78 14.38a.963.963 0 0 0-1.206.631 10.2 10.2 0 0 1-.202.58.964.964 0 0 0 1.8.685c.087-.226.167-.458.24-.689a.963.963 0 0 0-.631-1.207zM10.197 21.91a9.945 9.945 0 0 1-2.47-.786l-.027-.015a10.52 10.52 0 0 1-.548-.277l-.003-.002c-.327-.18-.647-.38-.958-.598-4.53-3.192-5.62-9.475-2.428-14.005a10.009 10.009 0 0 1 2.47-2.458l.035-.024c3.3-2.274 7.78-2.427 11.283-.09L16.8 4.741c-.21.302-.08.523.285.49l3.27-.293a.538.538 0 0 0 .486-.704l-.877-3.163c-.099-.354-.35-.397-.56-.094l-.754 1.09A11.895 11.895 0 0 0 9.933.215c-.308.053-.612.118-.912.194L9.015.41l-.034.01a11.876 11.876 0 0 0-6.586 4.414c-.014.016-.028.032-.041.05a11.345 11.345 0 0 0-.417.6l-.027.047a11.874 11.874 0 0 0-1.898 7.004v.024c.011.242.03.487.056.728l.008.046a11.887 11.887 0 0 0 3.455 7.175l.012.012.004.004c.471.464.983.894 1.535 1.282a11.876 11.876 0 0 0 4.775 2 .963.963 0 1 0 .34-1.897z"/>
        <path fill="#5E6B85" fill-rule="nonzero" d="M11.388 4.233a.78.78 0 0 0-.78.78v7.763l7.101 3.671a.78.78 0 0 0 .716-1.384l-6.258-3.236V5.013a.78.78 0 0 0-.779-.78z"/>
    </g>
</svg>
